<?xml version="1.0" encoding="utf-8"?>
<!-- Generator: Adobe Illustrator 27.7.0, SVG Export Plug-In . SVG Version: 6.00 Build 0)  -->
<svg version="1.1" id="Layer_1" xmlns="http://www.w3.org/2000/svg" xmlns:xlink="http://www.w3.org/1999/xlink" x="0px" y="0px"
	 viewBox="0 0 300 100" style="enable-background:new 0 0 300 100;" xml:space="preserve">
<g>
	<g>
		<path class="mobile-title-svg" d="M235.9,23.4c0.5-0.8,0.4-1.4,0.4-2c0-2.2,0-4.3,0-6.6c0-4.5,1.8-6.8,6.3-7.5c8.9-1.4,17.3,0.1,25.3,4.2
			c1.9,1,3.5,2.2,4.8,3.7c2.6,3,3.1,6.3,1.8,10c-1.1,3-3,5.5-5.1,7.8c-7.8,8.2-16.9,14.6-26.7,20.1c-0.4,0.2-0.8,0.3-1.1,0.8
			c4-0.4,8-0.5,11.9-0.4c7.7,0.2,15.1,1.8,22.3,4.5c4,1.6,7.5,3.9,9.7,7.8c1,1.6,1.6,3.3,1.8,5.2c0.3,3.6-1.1,6.3-4.3,8
			c-3.8,2-8,3.1-12.1,4.2c-6.7,1.8-13.6,2.6-20.6,2.7c-4.8,0.1-9.5,0.3-14.4-0.2c-0.4,0-0.8-0.1-1.1-0.2c-1.5-0.4-2.9-0.8-4.3,0.6
			c-1.3,1.2-3.2,0-3.4-1.8c-0.1-1.8,0.5-3.4,0.9-5c1.3-5.3,1.8-10.7,2.5-16.1c0.1-1,0.2-2,0.3-3c0.1-1,0.3-2.1-0.4-3
			c-0.3-0.4-0.2-1,0.1-1.3c1.2-1.4,0.9-3.1,1-4.7c0.6-13.2,0.4-26.4,0.3-39.6c0-1.7-0.3-3.4-0.5-5.1c-0.1-1.2-0.6-2.2-1.2-3.1
			c-0.7-1.2-0.5-2.4,0.6-3c1-0.6,2.1-0.3,2.9,0.9c1.5,2.2,1.9,4.7,2.1,7.3C236,13.5,235.8,18.4,235.9,23.4z M234.1,81.2
			c0.7,0.5,1.5,0.6,2.2,0.7c10,0.5,20,0.5,29.9-1.6c5-1,9.8-2.4,14.5-4.5c2.7-1.3,3.2-2.9,2.4-5.7c-0.3-1-0.8-2-1.4-2.9
			c-1.6-2.2-3.6-3.7-6-4.8c-5.6-2.6-11.6-3.8-17.7-4.5c-7.3-0.8-14.5,0-21.6,0.6c-1.2,0.1-1.4,0.6-1.5,1.6c-0.3,4.8-1,9.6-1.7,14.4
			c0,0.2-0.2,0.7-0.1,0.7c0.7,0.4,1.2,1,1.8,1.6c0.2,0.2,0.9,0.1,1.4,0c2.2-0.3,4.3-0.2,6.6-0.2c1.3,0,2.1,0.8,2.1,1.9
			c0.1,1.1-0.8,2-2,2.1c-1.4,0.1-2.9,0.1-4.3,0.1C237.2,80.6,235.7,80.8,234.1,81.2z M235.8,52c3.4-1.7,7-3.2,10.2-5.4
			c6.8-4.4,13.5-9.1,19.2-14.9c2.1-2.2,4-4.4,5.3-7.2c1.3-2.9,0.8-5-1.5-7.2c-1.4-1.3-3-2.3-4.6-3c-5.4-2.6-11.2-3.6-17.2-3.4
			c-1.7,0-3.2,0.2-4.8,0.7c-1.7,0.5-2,0.9-2,2.6c0,2.4,0,4.8,0,7.2c0,2.7-0.8,5.1-2.4,7.3c-0.3,0.5-0.7,1.1-1.3,1.1
			c-0.9,0.1-0.8,0.6-0.9,1.2c0,4.3-0.1,8.8-0.1,13.1C235.8,46.7,235.8,49.4,235.8,52z"/>
		<path class="mobile-title-svg" d="M70,81.6c1.9-3,3.3-5.7,4.9-8.6c1.3-2.4,2.4-4.7,3.7-7c0.6-1,0.6-1.5-0.6-1.9c-0.8-0.3-1.3-0.9-1.3-1.9
			c0-0.8,0.3-1.4,1-1.8c0.7-0.4,1.5-0.4,2.2,0.1c0.9,0.6,1.3,0.3,1.8-0.6c5.7-11.8,9.9-24.1,13.6-36.7c0.6-2.3,1.3-4.4,2.5-6.4
			c0.6-1,1.3-2,2.3-2.7c1.8-1.3,3.6-0.5,4.1,1.6c0.4,1.9-0.1,3.6-0.4,5.4c-1.3,7-1.7,14.1-2,21.1c-0.2,6.4-0.5,12.9,0,19.3
			c0.1,2.1,0.4,4.2,0.5,6.3c0.1,0.9,0.7,1,1.3,1.1c3.6,0.8,7.3,1.5,10.9,2.6c0.7,0.2,1.5,0.5,2.2,0.8c2.8,1.3,3.6,3.6,2.7,6.5
			c-1.7,4.6-6.2,7-11.4,6c-3.1-0.6-5.4-2.4-6.7-5.3c-0.9-2.1-1.6-4.1-2-6.3c-0.2-0.8-0.5-1.3-1.4-1.5c-4.7-1.2-9.3-2.8-13.8-4.7
			c-0.8-0.4-1.2-0.3-1.6,0.6c-3.1,6.3-6.4,12.5-10.2,18.4c-0.9,1.3-1.8,2.6-3,3.6c-1,0.4-2,0.9-3.1,0.3s-1.6-1.6-1.5-2.9
			c0.2-3,1-5.9,1.8-8.8C70.8,63,75.6,47.6,82.4,33c3.8-8.4,8.7-16.3,13.4-24.2c0.8-1.3,1.9-1.6,2.9-1c1.1,0.6,1.4,1.8,0.6,3
			c-3.9,6.6-7.9,13.1-11.3,20c-5.9,11.8-10.2,24.3-14.2,37c-1.3,4.2-2.6,8.5-3.6,12.7C70,80.8,69.8,81.1,70,81.6z M98.8,25.3
			c-0.2,0.6-0.4,1-0.5,1.4C94.9,38.8,90.6,50.6,85,61.9c-0.4,0.9-0.1,1.1,0.6,1.4c3.2,1.4,6.6,2.7,10,3.6c0.8,0.2,1.6,0.6,2.4,0.6
			C96.8,53.4,97.5,39.4,98.8,25.3z M103.2,73c0.4,1.8,0.9,3.2,1.5,4.7c1,2.5,3,3,5.5,3.1c2.3,0.1,3.7-1,4.8-2.9c0.8-1.5,0.7-2-1-2.5
			C110.6,74.5,107,73.8,103.2,73z"/>
		<path class="mobile-title-svg" d="M0,67c0.6-19.7,7.6-37.6,21.5-52.7c3.2-3.5,7-6.6,11.3-8.8c1.3-0.7,2.7-1.3,4.1-1.4c4-0.4,7.2,2.5,7.4,6.6
			c0.1,3.5-0.9,6.8-1.8,10.1c-1.3,4.6-2.7,9.2-4.8,13.6c-1.1,2.3-2.5,4.3-4.6,5.7c-1.3,0.8-2.5,0.8-3.1-0.2c-0.8-1-0.5-2.3,0.8-3
			c1.7-1.1,2.7-2.7,3.4-4.4c2.4-4.7,3.7-9.7,5-14.9c0.5-2.1,1.1-4,1.1-6.2c0-3-1.6-4-4.3-3c-3.6,1.5-6.8,3.8-9.5,6.6
			C15.8,25.6,9,38.3,5.8,52.8c-1.7,7.6-2.2,15.2-1.5,22.9c0.2,2,0.5,4,1.1,5.9c1.4,4.8,4.8,7.4,9.9,8c4,0.5,8-0.1,11.8-1.3
			c7.5-2.2,14.8-4.8,21.9-7.9c0.7-0.3,1.3-0.6,1.7-1.4c0.6-1.1,3-1.7,4.2-1.2c1.3,0.7,1.6,2.3,0.5,3.3c-1,1.1-2.3,1.7-3.6,2.3
			c-5,2.4-10.2,4.2-15.4,6c-4.6,1.6-9.1,3.2-14.1,3.9c-3.8,0.6-7.6,0.4-11.2-0.7C5.2,91,2.2,86.7,1,80.9C0.1,76.6-0.1,72.3,0,67z"/>
		<path class="mobile-title-svg" d="M127.1,42.1c0-9.2,0.8-17.4,1.4-25.6c0.2-3.1,0.7-6.1,1.5-9.1c0.4-1.4,1.4-2,2.5-1.7c1.2,0.3,1.8,1.1,1.5,2.4
			c-1.4,6.9-2,13.8-2.4,20.8c-0.7,11.3-0.9,22.6,1.4,33.7c0.8,3.9,1.9,7.8,4.3,11c3,3.9,6.9,5.1,12.1,3.7c4.1-1.1,7.9-3.1,11.5-5.2
			c5.2-3,10.1-6.7,15.1-10.3c0.9-0.7,1.9-0.9,2.8-0.1c0.7,0.6,0.9,1.4,0.6,2.3c-0.1,0.4-0.4,0.7-0.7,0.9
			c-7.3,5.3-14.6,10.8-22.9,14.6c-2.7,1.2-5.4,2.1-8.3,2.5c-6.1,0.7-10.6-1.7-14-6.6c-2.8-4.1-3.9-8.8-4.8-13.5
			C127.4,54.9,127,48,127.1,42.1z"/>
		<path class="mobile-title-svg" d="M295.6,80.5c0.4,0,0.9,0,1.3,0.3c1.2,0.7,1.9,1.8,2.8,2.7c0.7,0.9,0.1,2.3-1.1,2.8c-1.4,0.5-2.6,1.2-3.7,2.1
			c-1.1,0.9-2.6,0.8-3.5,0.1c-1.1-0.8-1.4-2-0.9-3.3C291.1,82.5,293.5,80.5,295.6,80.5z"/>
	</g>
</g>
</svg>