<?xml version="1.0" encoding="utf-8"?>
<!-- Generator: Adobe Illustrator 27.7.0, SVG Export Plug-In . SVG Version: 6.00 Build 0)  -->
<svg version="1.1" id="Layer_1" xmlns="http://www.w3.org/2000/svg" xmlns:xlink="http://www.w3.org/1999/xlink" x="0px" y="0px"
	 viewBox="0 0 350 100" style="enable-background:new 0 0 350 100;" xml:space="preserve">
<g>
	<g>
		<path d="M262.4,26.1c0.5-0.8,0.4-1.4,0.4-2c0-2.2,0-4.4,0-6.7c0-4.6,1.8-6.9,6.4-7.6c9-1.4,17.6,0.1,25.7,4.3
			c1.9,1,3.6,2.2,4.9,3.8c2.6,3,3.2,6.4,1.8,10.2c-1.1,3-3,5.6-5.2,7.9c-7.9,8.3-17.2,14.8-27.1,20.4c-0.4,0.2-0.8,0.3-1.1,0.8
			c4.1-0.4,8.1-0.5,12.1-0.4c7.8,0.2,15.4,1.8,22.7,4.6c4.1,1.6,7.6,4,9.9,7.9c1,1.6,1.6,3.4,1.8,5.3c0.3,3.7-1.1,6.4-4.4,8.1
			c-3.9,2-8.1,3.2-12.3,4.3c-6.8,1.8-13.8,2.6-20.9,2.7c-4.9,0.1-9.7,0.3-14.6-0.2c-0.4,0-0.8-0.1-1.1-0.2c-1.5-0.4-2.9-0.8-4.4,0.6
			c-1.3,1.2-3.3,0-3.5-1.8c-0.1-1.8,0.5-3.5,0.9-5.1c1.3-5.4,1.8-10.9,2.5-16.4c0.1-1,0.2-2,0.3-3.1c0.1-1,0.3-2.1-0.4-3.1
			c-0.3-0.4-0.2-1,0.1-1.3c1.2-1.4,0.9-3.2,1-4.8c0.6-13.4,0.4-26.8,0.3-40.3c0-1.7-0.3-3.5-0.5-5.2c-0.1-1.2-0.6-2.2-1.2-3.2
			c-0.7-1.2-0.5-2.4,0.6-3c1-0.6,2.1-0.3,2.9,0.9c1.5,2.2,1.9,4.8,2.1,7.4C262.5,16,262.3,21,262.4,26.1z M260.6,84.8
			c0.7,0.5,1.5,0.6,2.2,0.7c10.2,0.5,20.3,0.5,30.4-1.6c5.1-1,10-2.4,14.7-4.6c2.7-1.3,3.3-2.9,2.4-5.8c-0.3-1-0.8-2-1.4-2.9
			c-1.6-2.2-3.7-3.8-6.1-4.9c-5.7-2.6-11.8-3.9-18-4.6c-7.4-0.8-14.7,0-22,0.6c-1.2,0.1-1.4,0.6-1.5,1.6c-0.3,4.9-1,9.8-1.7,14.6
			c0,0.2-0.2,0.7-0.1,0.7c0.7,0.4,1.2,1,1.8,1.6c0.2,0.2,0.9,0.1,1.4,0c2.2-0.3,4.4-0.2,6.7-0.2c1.3,0,2.1,0.8,2.1,1.9
			c0.1,1.1-0.8,2-2,2.1c-1.4,0.1-2.9,0.1-4.4,0.1C263.7,84.2,262.2,84.4,260.6,84.8z M262.3,55.2c3.5-1.7,7.1-3.3,10.4-5.5
			c6.9-4.5,13.7-9.2,19.5-15.1c2.1-2.2,4.1-4.5,5.4-7.3c1.3-2.9,0.8-5.1-1.5-7.3c-1.4-1.3-3-2.3-4.7-3.1c-5.5-2.6-11.4-3.7-17.5-3.5
			c-1.7,0-3.3,0.2-4.9,0.7c-1.7,0.5-2,0.9-2,2.6c0,2.4,0,4.9,0,7.3c0,2.7-0.8,5.2-2.4,7.4c-0.3,0.5-0.7,1.1-1.3,1.1
			c-0.9,0.1-0.8,0.6-0.9,1.2c0,4.4-0.1,8.9-0.1,13.3C262.3,49.8,262.3,52.5,262.3,55.2z"/>
		<path d="M93.7,85.3c1.9-3,3.4-5.8,5-8.7c1.3-2.4,2.4-4.8,3.8-7.1c0.6-1,0.6-1.5-0.6-1.9c-0.8-0.3-1.3-0.9-1.3-1.9
			c0-0.8,0.3-1.4,1-1.8c0.7-0.4,1.5-0.4,2.2,0.1c0.9,0.6,1.3,0.3,1.8-0.6c5.8-12,10.1-24.5,13.8-37.3c0.6-2.3,1.3-4.5,2.5-6.5
			c0.6-1,1.3-2,2.3-2.7c1.8-1.3,3.7-0.5,4.2,1.6c0.4,1.9-0.1,3.7-0.4,5.5c-1.3,7.1-1.7,14.3-2,21.5c-0.2,6.5-0.5,13.1,0,19.6
			c0.1,2.1,0.4,4.3,0.5,6.4c0.1,0.9,0.7,1,1.3,1.1c3.7,0.8,7.4,1.5,11.1,2.6c0.7,0.2,1.5,0.5,2.2,0.8c2.8,1.3,3.7,3.7,2.7,6.6
			c-1.7,4.7-6.3,7.1-11.6,6.1c-3.2-0.6-5.5-2.4-6.8-5.4c-0.9-2.1-1.6-4.2-2-6.4c-0.2-0.8-0.5-1.3-1.4-1.5c-4.8-1.2-9.5-2.8-14-4.8
			c-0.8-0.4-1.2-0.3-1.6,0.6c-3.2,6.4-6.5,12.7-10.4,18.7c-0.9,1.3-1.8,2.6-3,3.7C92,94,91,94.5,89.8,93.9c-1.2-0.6-1.6-1.6-1.5-2.9
			c0.2-3,1-6,1.8-8.9c4.4-15.8,9.3-31.4,16.2-46.3c3.9-8.5,8.8-16.6,13.6-24.6c0.8-1.3,1.9-1.6,2.9-1c1.1,0.6,1.4,1.8,0.6,3.1
			c-4,6.7-8,13.3-11.5,20.3c-6,12-10.4,24.7-14.4,37.6c-1.3,4.3-2.6,8.6-3.7,12.9C93.7,84.4,93.5,84.7,93.7,85.3z M123,28
			c-0.2,0.6-0.4,1-0.5,1.4c-3.5,12.3-7.8,24.3-13.5,35.8c-0.4,0.9-0.1,1.1,0.6,1.4c3.3,1.4,6.7,2.7,10.2,3.7
			c0.8,0.2,1.6,0.6,2.4,0.6C121,56.6,121.7,42.4,123,28z M127.5,76.5c0.4,1.8,0.9,3.3,1.5,4.8c1,2.5,3.1,3.1,5.6,3.2
			c2.3,0.1,3.8-1,4.9-2.9c0.8-1.5,0.7-2-1-2.5C135,78,131.3,77.3,127.5,76.5z"/>
		<path d="M22.6,70.4c0.6-20,7.7-38.2,21.9-53.6c3.3-3.6,7.1-6.7,11.5-8.9c1.3-0.7,2.7-1.3,4.2-1.4c4.1-0.4,7.3,2.5,7.5,6.7
			c0.1,3.6-0.9,6.9-1.8,10.3c-1.3,4.7-2.7,9.4-4.9,13.8c-1.1,2.3-2.5,4.4-4.7,5.8c-1.3,0.8-2.5,0.8-3.2-0.2c-0.8-1-0.5-2.3,0.8-3.1
			c1.7-1.1,2.7-2.7,3.5-4.5c2.4-4.8,3.8-9.9,5.1-15.1c0.5-2.1,1.1-4.1,1.1-6.3c0-3-1.6-4.1-4.4-3c-3.7,1.5-6.9,3.9-9.7,6.7
			C38.6,28.3,31.7,41.2,28.5,56c-1.7,7.7-2.2,15.5-1.5,23.3c0.2,2,0.5,4.1,1.1,6c1.4,4.9,4.9,7.5,10.1,8.1c4.1,0.5,8.1-0.1,12-1.3
			c7.6-2.2,15-4.9,22.3-8c0.7-0.3,1.3-0.6,1.7-1.4c0.6-1.1,3.1-1.7,4.3-1.2c1.3,0.7,1.6,2.3,0.5,3.4c-1,1.1-2.3,1.7-3.7,2.3
			c-5.1,2.4-10.4,4.3-15.7,6.1c-4.7,1.6-9.3,3.3-14.3,4c-3.9,0.6-7.7,0.4-11.4-0.7c-6-1.8-9.1-6.2-10.3-12.1
			C22.7,80.2,22.5,75.8,22.6,70.4z"/>
		<path d="M151.8,45.1c0-9.4,0.8-17.7,1.4-26c0.2-3.2,0.7-6.2,1.5-9.2c0.4-1.4,1.4-2,2.5-1.7c1.2,0.3,1.8,1.1,1.5,2.4
			c-1.4,7-2,14-2.4,21.1c-0.7,11.5-0.9,23,1.4,34.3c0.8,4,1.9,7.9,4.4,11.2c3,4,7,5.2,12.3,3.8c4.2-1.1,8-3.2,11.7-5.3
			c5.3-3.1,10.3-6.8,15.3-10.5c0.9-0.7,1.9-0.9,2.8-0.1c0.7,0.6,0.9,1.4,0.6,2.3c-0.1,0.4-0.4,0.7-0.7,0.9
			c-7.4,5.4-14.8,11-23.3,14.8c-2.7,1.2-5.5,2.1-8.4,2.5c-6.2,0.7-10.8-1.7-14.2-6.7c-2.8-4.2-4-8.9-4.9-13.7
			C152.1,58.1,151.7,51.1,151.8,45.1z"/>
		<path d="M323.1,84.1c0.4,0,0.9,0,1.3,0.3c1.2,0.7,1.9,1.8,2.8,2.7c0.7,0.9,0.1,2.3-1.1,2.8c-1.4,0.5-2.6,1.2-3.8,2.1
			c-1.1,0.9-2.6,0.8-3.6,0.1c-1.1-0.8-1.4-2-0.9-3.4C318.5,86.2,320.9,84.1,323.1,84.1z"/>
	</g>
</g>
</svg>
